<svg width="61" height="45" viewBox="0 0 61 45" fill="none" xmlns="http://www.w3.org/2000/svg">
<path d="M43.76 7.24792e-05C49.952 7.24792e-05 54.344 1.10407 56.936 3.31207C59.576 5.47207 60.896 9.00007 60.896 13.8961C60.896 16.3921 60.608 19.2721 60.032 22.5361C58.592 30.6001 56.12 36.3601 52.616 39.8161C49.16 43.2721 43.568 45.0001 35.84 45.0001H16.688L24.608 7.24792e-05H43.76ZM41.888 11.5201H36.2L32.384 33.4801H38.072C39.944 33.4801 41.336 33.2641 42.248 32.8321C43.16 32.3521 43.76 31.2961 44.048 29.6641L46.568 15.3361C46.616 15.0481 46.64 14.6641 46.64 14.1841C46.64 13.0801 46.256 12.3601 45.488 12.0241C44.72 11.6881 43.52 11.5201 41.888 11.5201ZM14.528 44.7841L0.156 41.544L15.104 41.5441L14.528 44.7841ZM16.976 30.8881L2.604 27.648L17.552 27.6481L16.976 30.8881ZM18.2 23.9761L3.828 20.736L18.776 20.7361L18.2 23.9761ZM19.424 17.0641L5.052 13.824L20 13.8241L19.424 17.0641ZM20.648 10.1521L6.276 6.912L21.152 6.91207L20.648 10.1521ZM15.752 37.8001L1.38 34.56L16.328 34.5601L15.752 37.8001ZM21.8 3.24007L7.5 0L22.376 7.24792e-05L21.8 3.24007Z" fill="url(#paint0_linear_12_3)"/>
<defs>
<linearGradient id="paint0_linear_12_3" x1="2" y1="-2.40001" x2="42.3427" y2="56.2977" gradientUnits="userSpaceOnUse">
<stop stop-color="#56E5F9"/>
<stop offset="0.372462" stop-color="#BC39FA"/>
<stop offset="0.685605" stop-color="#F9E749"/>
<stop offset="0.96875" stop-color="#49AFF9"/>
</linearGradient>
</defs>
</svg>
