<svg width="934" height="1157" viewBox="0 0 934 1157" fill="none" xmlns="http://www.w3.org/2000/svg">
<path fill-rule="evenodd" clip-rule="evenodd" d="M721 774C838.637 774 934 676.622 934 556.5C934 436.378 838.637 339 721 339C603.363 339 508 436.378 508 556.5C508 676.622 603.363 774 721 774ZM726.5 683C793.603 683 848 627.483 848 559C848 490.517 793.603 435 726.5 435C659.397 435 605 490.517 605 559C605 627.483 659.397 683 726.5 683Z" fill="#C3BEB1"/>
<ellipse cx="368.5" cy="944" rx="352.5" ry="213" fill="#D1CCC0"/>
<rect x="16" y="339" width="705" height="593" fill="#D1CCC0"/>
<path fill-rule="evenodd" clip-rule="evenodd" d="M368 1157V339L721 339V932H720.45C720.815 935.972 721 939.973 721 944C721 1061.64 563.18 1157 368.5 1157C368.333 1157 368.167 1157 368 1157Z" fill="#C4BEB1"/>
<rect x="73" y="476" width="212" height="362" fill="#7C5800"/>
<ellipse cx="179" cy="832" rx="106" ry="100" fill="#7C5800"/>
<path fill-rule="evenodd" clip-rule="evenodd" d="M179 932C235.407 932 281.523 890.435 284.812 838H285V832V476H179V932Z" fill="#735200"/>
<ellipse cx="368" cy="348.5" rx="368" ry="230.5" fill="#7C5800"/>
<rect x="315" y="559" width="105" height="223" fill="#7C5800"/>
<ellipse cx="367.5" cy="782" rx="52.5" ry="50" fill="#7C5800"/>
<path fill-rule="evenodd" clip-rule="evenodd" d="M368 579V118C571.241 118 736 221.198 736 348.5C736 475.802 571.241 579 368 579Z" fill="#735200"/>
<path fill-rule="evenodd" clip-rule="evenodd" d="M485.305 43.4597C475.939 36.1609 474.263 22.6514 481.562 13.2854C488.861 3.91935 502.37 2.24348 511.736 9.54225C560.81 47.7839 575.493 89.3557 566.646 127.72C558.622 162.518 532.428 188.662 511.588 202.635C476.711 231.743 473.41 256.069 477.327 273.057C482.084 293.684 499.348 312.075 515.309 322.5C525.251 328.994 528.046 342.317 521.553 352.258C515.059 362.2 501.736 364.995 491.795 358.502C470.756 344.76 443.62 318.251 435.427 282.72C426.985 246.111 439.969 206.582 483.815 169.812C484.434 169.233 485.093 168.686 485.792 168.173C487.273 166.96 488.787 165.749 490.336 164.542C491.547 163.599 492.827 162.805 494.154 162.159C507.729 151.378 520.719 135.519 524.746 118.057C528.849 100.263 525.032 74.418 485.305 43.4597Z" fill="#C6AC95"/>
<path fill-rule="evenodd" clip-rule="evenodd" d="M512.534 10C560.969 48.0695 575.445 89.3977 566.646 127.553C558.622 162.351 532.428 188.496 511.588 202.468C476.711 231.576 473.41 255.902 477.327 272.891C482.084 293.517 499.348 311.909 515.309 322.334C525.251 328.827 528.046 342.15 521.553 352.091C520.382 353.883 518.99 355.443 517.436 356.758C496.774 342.619 471.317 316.77 463.427 282.553C454.985 245.944 467.969 206.415 511.815 169.645C512.434 169.067 513.093 168.519 513.792 168.007C515.273 166.793 516.787 165.583 518.336 164.376C519.547 163.432 520.827 162.638 522.154 161.992C535.729 151.211 548.719 135.352 552.746 117.891C556.849 100.096 553.032 74.2513 513.305 43.293C503.939 35.9942 502.263 22.4847 509.562 13.1187C510.464 11.9608 511.462 10.9204 512.534 10Z" fill="#B89E86"/>
<path fill-rule="evenodd" clip-rule="evenodd" d="M169.305 38.4597C159.939 31.1609 158.263 17.6514 165.562 8.28539C172.861 -1.08065 186.37 -2.75652 195.736 4.54225C244.81 42.7839 259.493 84.3557 250.646 122.72C242.622 157.518 216.428 183.662 195.588 197.635C160.711 226.743 157.41 251.069 161.327 268.057C166.084 288.684 183.348 307.075 199.309 317.5C209.251 323.994 212.046 337.317 205.553 347.258C199.059 357.2 185.736 359.995 175.795 353.502C154.756 339.76 127.62 313.251 119.427 277.72C110.985 241.111 123.969 201.582 167.815 164.812C168.434 164.233 169.093 163.686 169.792 163.173C171.273 161.96 172.787 160.749 174.336 159.542C175.547 158.599 176.827 157.805 178.154 157.159C191.729 146.378 204.719 130.519 208.746 113.057C212.849 95.2629 209.032 69.418 169.305 38.4597Z" fill="#C6AC95"/>
<path fill-rule="evenodd" clip-rule="evenodd" d="M196.534 5C244.969 43.0695 259.445 84.3977 250.646 122.553C242.622 157.351 216.428 183.496 195.588 197.468C160.711 226.576 157.41 250.902 161.327 267.891C166.084 288.517 183.348 306.909 199.309 317.334C209.251 323.827 212.046 337.15 205.553 347.091C204.382 348.883 202.99 350.443 201.436 351.758C180.774 337.619 155.317 311.77 147.427 277.553C138.985 240.944 151.969 201.415 195.815 164.645C196.434 164.067 197.093 163.519 197.792 163.007C199.273 161.793 200.787 160.583 202.336 159.376C203.547 158.432 204.827 157.638 206.154 156.992C219.729 146.211 232.719 130.352 236.746 112.891C240.849 95.0962 237.032 69.2513 197.305 38.293C187.939 30.9942 186.263 17.4847 193.562 8.11868C194.464 6.96078 195.462 5.92041 196.534 5Z" fill="#B89E86"/>
<path fill-rule="evenodd" clip-rule="evenodd" d="M320.305 108.46C310.939 101.161 309.263 87.6514 316.562 78.2854C323.861 68.9193 337.37 67.2435 346.736 74.5422C395.81 112.784 410.493 154.356 401.646 192.72C393.622 227.518 367.428 253.662 346.588 267.635C311.711 296.743 308.41 321.069 312.327 338.057C317.084 358.684 334.348 377.075 350.309 387.5C360.251 393.994 363.046 407.317 356.553 417.258C350.059 427.2 336.736 429.995 326.795 423.502C305.756 409.76 278.62 383.251 270.427 347.72C261.985 311.111 274.969 271.582 318.815 234.812C319.434 234.233 320.093 233.686 320.792 233.173C322.273 231.96 323.787 230.749 325.336 229.542C326.547 228.599 327.827 227.805 329.154 227.159C342.729 216.378 355.719 200.519 359.746 183.057C363.849 165.263 360.032 139.418 320.305 108.46Z" fill="#C6AC95"/>
<path fill-rule="evenodd" clip-rule="evenodd" d="M347.534 75C395.969 113.069 410.445 154.398 401.646 192.553C393.622 227.351 367.428 253.496 346.588 267.468C311.711 296.576 308.41 320.902 312.327 337.891C317.084 358.517 334.348 376.909 350.309 387.334C360.251 393.827 363.046 407.15 356.553 417.091C355.382 418.883 353.99 420.443 352.436 421.758C331.774 407.619 306.317 381.77 298.427 347.553C289.985 310.944 302.969 271.415 346.815 234.645C347.434 234.067 348.093 233.519 348.792 233.007C350.273 231.793 351.787 230.583 353.336 229.376C354.547 228.432 355.827 227.638 357.154 226.992C370.729 216.211 383.719 200.352 387.746 182.891C391.849 165.096 388.032 139.251 348.305 108.293C338.939 100.994 337.263 87.4847 344.562 78.1187C345.464 76.9608 346.462 75.9204 347.534 75Z" fill="#B89E86"/>
<path fill-rule="evenodd" clip-rule="evenodd" d="M368 831.998V559H421V782C421 809.614 397.495 832 368.5 832C368.333 832 368.166 831.999 368 831.998Z" fill="#735200"/>
</svg>
